<mxfile host="app.diagrams.net" modified="2023-10-04T02:03:14.327Z" agent="Mozilla/5.0 (Macintosh; Intel Mac OS X 10_15_7) AppleWebKit/537.36 (KHTML, like Gecko) Chrome/117.0.0.0 Safari/537.36" etag="3Q5cs51glOaQH9UmT-c1" version="21.6.6" type="device">
  <diagram name="Page-1" id="U-7sqTLAMgFLwqJBCSkc">
    <mxGraphModel dx="954" dy="532" grid="1" gridSize="10" guides="1" tooltips="1" connect="1" arrows="1" fold="1" page="1" pageScale="1" pageWidth="827" pageHeight="1169" math="0" shadow="0">
      <root>
        <mxCell id="0" />
        <mxCell id="1" parent="0" />
        <mxCell id="Bsx0fT66WqdBsRw88jEr-4" style="edgeStyle=orthogonalEdgeStyle;rounded=0;orthogonalLoop=1;jettySize=auto;html=1;exitX=1;exitY=0.5;exitDx=0;exitDy=0;exitPerimeter=0;entryX=0;entryY=0.5;entryDx=0;entryDy=0;entryPerimeter=0;startArrow=classic;startFill=1;" edge="1" parent="1" source="Bsx0fT66WqdBsRw88jEr-1" target="Bsx0fT66WqdBsRw88jEr-2">
          <mxGeometry relative="1" as="geometry" />
        </mxCell>
        <mxCell id="Bsx0fT66WqdBsRw88jEr-1" value="TFTP Client" style="fontColor=#000000;verticalAlign=top;verticalLabelPosition=bottom;labelPosition=center;align=center;html=1;outlineConnect=0;fillColor=#CCCCCC;strokeColor=#6881B3;gradientColor=none;gradientDirection=north;strokeWidth=2;shape=mxgraph.networks.pc;" vertex="1" parent="1">
          <mxGeometry x="120" y="200" width="100" height="70" as="geometry" />
        </mxCell>
        <mxCell id="Bsx0fT66WqdBsRw88jEr-6" style="edgeStyle=orthogonalEdgeStyle;rounded=0;orthogonalLoop=1;jettySize=auto;html=1;exitX=1;exitY=0.5;exitDx=0;exitDy=0;exitPerimeter=0;entryX=0;entryY=0.5;entryDx=0;entryDy=0;entryPerimeter=0;startArrow=classic;startFill=1;" edge="1" parent="1" source="Bsx0fT66WqdBsRw88jEr-2" target="Bsx0fT66WqdBsRw88jEr-5">
          <mxGeometry relative="1" as="geometry" />
        </mxCell>
        <mxCell id="Bsx0fT66WqdBsRw88jEr-2" value="DHCPv6 Router" style="shape=mxgraph.cisco.routers.router;sketch=0;html=1;pointerEvents=1;dashed=0;fillColor=#036897;strokeColor=#ffffff;strokeWidth=2;verticalLabelPosition=bottom;verticalAlign=top;align=center;outlineConnect=0;" vertex="1" parent="1">
          <mxGeometry x="290" y="208.5" width="78" height="53" as="geometry" />
        </mxCell>
        <mxCell id="Bsx0fT66WqdBsRw88jEr-8" style="edgeStyle=orthogonalEdgeStyle;rounded=0;orthogonalLoop=1;jettySize=auto;html=1;exitX=1;exitY=0.5;exitDx=0;exitDy=0;exitPerimeter=0;entryX=0;entryY=0.5;entryDx=0;entryDy=0;entryPerimeter=0;startArrow=classic;startFill=1;" edge="1" parent="1" source="Bsx0fT66WqdBsRw88jEr-5" target="Bsx0fT66WqdBsRw88jEr-7">
          <mxGeometry relative="1" as="geometry" />
        </mxCell>
        <mxCell id="Bsx0fT66WqdBsRw88jEr-5" value="RIPng/OSPF Router" style="shape=mxgraph.cisco.routers.router;sketch=0;html=1;pointerEvents=1;dashed=0;fillColor=#036897;strokeColor=#ffffff;strokeWidth=2;verticalLabelPosition=bottom;verticalAlign=top;align=center;outlineConnect=0;" vertex="1" parent="1">
          <mxGeometry x="440" y="208.5" width="78" height="53" as="geometry" />
        </mxCell>
        <mxCell id="Bsx0fT66WqdBsRw88jEr-10" style="edgeStyle=orthogonalEdgeStyle;rounded=0;orthogonalLoop=1;jettySize=auto;html=1;exitX=1;exitY=0.5;exitDx=0;exitDy=0;exitPerimeter=0;entryX=0;entryY=0.5;entryDx=0;entryDy=0;entryPerimeter=0;startArrow=classic;startFill=1;" edge="1" parent="1" source="Bsx0fT66WqdBsRw88jEr-7" target="Bsx0fT66WqdBsRw88jEr-9">
          <mxGeometry relative="1" as="geometry" />
        </mxCell>
        <mxCell id="Bsx0fT66WqdBsRw88jEr-7" value="RIPng/OSPF Router" style="shape=mxgraph.cisco.routers.router;sketch=0;html=1;pointerEvents=1;dashed=0;fillColor=#036897;strokeColor=#ffffff;strokeWidth=2;verticalLabelPosition=bottom;verticalAlign=top;align=center;outlineConnect=0;" vertex="1" parent="1">
          <mxGeometry x="580" y="208.5" width="78" height="53" as="geometry" />
        </mxCell>
        <mxCell id="Bsx0fT66WqdBsRw88jEr-9" value="TFTP Server" style="shape=mxgraph.cisco.servers.fileserver;sketch=0;html=1;pointerEvents=1;dashed=0;fillColor=#036897;strokeColor=#ffffff;strokeWidth=2;verticalLabelPosition=bottom;verticalAlign=top;align=center;outlineConnect=0;" vertex="1" parent="1">
          <mxGeometry x="740" y="204" width="43" height="62" as="geometry" />
        </mxCell>
      </root>
    </mxGraphModel>
  </diagram>
</mxfile>
